<svg width="121" height="23" viewBox="0 0 121 23" fill="none" xmlns="http://www.w3.org/2000/svg">
<path d="M8.30672 22.15C6.78672 22.15 5.41672 21.81 4.19672 21.13C2.97672 20.43 2.01672 19.47 1.31672 18.25C0.616719 17.03 0.266719 15.65 0.266719 14.11C0.266719 12.57 0.616719 11.19 1.31672 9.97C2.01672 8.75 2.97672 7.8 4.19672 7.12C5.41672 6.44 6.78672 6.1 8.30672 6.1C9.82672 6.1 11.1967 6.44 12.4167 7.12C13.6367 7.8 14.5867 8.75 15.2667 9.97C15.9667 11.19 16.3167 12.57 16.3167 14.11C16.3167 15.65 15.9667 17.03 15.2667 18.25C14.5867 19.47 13.6367 20.43 12.4167 21.13C11.1967 21.81 9.82672 22.15 8.30672 22.15ZM8.30672 20.26C9.42672 20.26 10.4267 20.01 11.3067 19.51C12.2067 18.99 12.9067 18.26 13.4067 17.32C13.9067 16.38 14.1567 15.31 14.1567 14.11C14.1567 12.91 13.9067 11.84 13.4067 10.9C12.9067 9.96 12.2067 9.24 11.3067 8.74C10.4267 8.22 9.42672 7.96 8.30672 7.96C7.18672 7.96 6.17672 8.22 5.27672 8.74C4.39672 9.24 3.69672 9.96 3.17672 10.9C2.67672 11.84 2.42672 12.91 2.42672 14.11C2.42672 15.31 2.67672 16.38 3.17672 17.32C3.69672 18.26 4.39672 18.99 5.27672 19.51C6.17672 20.01 7.18672 20.26 8.30672 20.26ZM28.7053 6.1C30.6853 6.1 32.2553 6.68 33.4153 7.84C34.5953 8.98 35.1853 10.65 35.1853 12.85V22H33.0553V13.06C33.0553 11.42 32.6453 10.17 31.8253 9.31C31.0053 8.45 29.8353 8.02 28.3153 8.02C26.6153 8.02 25.2653 8.53 24.2653 9.55C23.2853 10.55 22.7953 11.94 22.7953 13.72V22H20.6653V6.22H22.7053V9.13C23.2853 8.17 24.0853 7.43 25.1053 6.91C26.1453 6.37 27.3453 6.1 28.7053 6.1ZM54.7666 14.77H41.5666C41.6866 16.41 42.3166 17.74 43.4566 18.76C44.5966 19.76 46.0366 20.26 47.7766 20.26C48.7566 20.26 49.6566 20.09 50.4766 19.75C51.2966 19.39 52.0066 18.87 52.6066 18.19L53.8066 19.57C53.1066 20.41 52.2266 21.05 51.1666 21.49C50.1266 21.93 48.9766 22.15 47.7166 22.15C46.0966 22.15 44.6566 21.81 43.3966 21.13C42.1566 20.43 41.1866 19.47 40.4866 18.25C39.7866 17.03 39.4366 15.65 39.4366 14.11C39.4366 12.57 39.7666 11.19 40.4266 9.97C41.1066 8.75 42.0266 7.8 43.1866 7.12C44.3666 6.44 45.6866 6.1 47.1466 6.1C48.6066 6.1 49.9166 6.44 51.0766 7.12C52.2366 7.8 53.1466 8.75 53.8066 9.97C54.4666 11.17 54.7966 12.55 54.7966 14.11L54.7666 14.77ZM47.1466 7.93C45.6266 7.93 44.3466 8.42 43.3066 9.4C42.2866 10.36 41.7066 11.62 41.5666 13.18H52.7566C52.6166 11.62 52.0266 10.36 50.9866 9.4C49.9666 8.42 48.6866 7.93 47.1466 7.93ZM74.6721 11.02C75.9121 11.48 76.8721 12.15 77.5521 13.03C78.2321 13.91 78.5721 14.97 78.5721 16.21C78.5721 18.05 77.8121 19.48 76.2921 20.5C74.7721 21.5 72.5721 22 69.6921 22H57.8721V0.999999H69.0921C71.8921 0.999999 74.0021 1.5 75.4221 2.5C76.8621 3.5 77.5821 4.83 77.5821 6.49C77.5821 7.47 77.3321 8.35 76.8321 9.13C76.3521 9.91 75.6321 10.54 74.6721 11.02ZM64.8321 5.95V9.07H68.1321C69.6721 9.07 70.4421 8.55 70.4421 7.51C70.4421 6.47 69.6721 5.95 68.1321 5.95H64.8321ZM69.0921 17.05C70.6521 17.05 71.4321 16.5 71.4321 15.4C71.4321 14.3 70.6521 13.75 69.0921 13.75H64.8321V17.05H69.0921ZM91.9352 22.48C89.7152 22.48 87.7152 22.02 85.9352 21.1C84.1552 20.16 82.7552 18.86 81.7352 17.2C80.7352 15.52 80.2352 13.62 80.2352 11.5C80.2352 9.38 80.7352 7.49 81.7352 5.83C82.7552 4.15 84.1552 2.85 85.9352 1.93C87.7152 0.989999 89.7152 0.519999 91.9352 0.519999C93.9752 0.519999 95.7952 0.88 97.3952 1.6C98.9952 2.32 100.315 3.36 101.355 4.72L96.8852 8.71C95.5852 7.07 94.0552 6.25 92.2952 6.25C90.8152 6.25 89.6252 6.73 88.7252 7.69C87.8252 8.63 87.3752 9.9 87.3752 11.5C87.3752 13.1 87.8252 14.38 88.7252 15.34C89.6252 16.28 90.8152 16.75 92.2952 16.75C94.0552 16.75 95.5852 15.93 96.8852 14.29L101.355 18.28C100.315 19.64 98.9952 20.68 97.3952 21.4C95.7952 22.12 93.9752 22.48 91.9352 22.48ZM110.936 22.48C109.196 22.48 107.496 22.29 105.836 21.91C104.196 21.51 102.846 20.98 101.786 20.32L104.066 15.16C105.066 15.74 106.186 16.21 107.426 16.57C108.666 16.91 109.856 17.08 110.996 17.08C111.976 17.08 112.676 16.99 113.096 16.81C113.516 16.61 113.726 16.32 113.726 15.94C113.726 15.5 113.446 15.17 112.886 14.95C112.346 14.73 111.446 14.49 110.186 14.23C108.566 13.89 107.216 13.53 106.136 13.15C105.056 12.75 104.116 12.11 103.316 11.23C102.516 10.33 102.116 9.12 102.116 7.6C102.116 6.28 102.486 5.08 103.226 4C103.966 2.92 105.066 2.07 106.526 1.45C108.006 0.829999 109.796 0.519999 111.896 0.519999C113.336 0.519999 114.746 0.679999 116.126 0.999999C117.526 1.3 118.756 1.75 119.816 2.35L117.686 7.48C115.626 6.44 113.676 5.92 111.836 5.92C110.016 5.92 109.106 6.36 109.106 7.24C109.106 7.66 109.376 7.98 109.916 8.2C110.456 8.4 111.346 8.62 112.586 8.86C114.186 9.16 115.536 9.51 116.636 9.91C117.736 10.29 118.686 10.92 119.486 11.8C120.306 12.68 120.716 13.88 120.716 15.4C120.716 16.72 120.346 17.92 119.606 19C118.866 20.06 117.756 20.91 116.276 21.55C114.816 22.17 113.036 22.48 110.936 22.48Z" fill="white"/>
</svg>
